<svg xmlns="http://www.w3.org/2000/svg" xmlns:xlink="http://www.w3.org/1999/xlink" viewBox="0 0 155 120">
  <defs>
    <style>
      .cls-1 {
        clip-path: url(#clip-Artboard_1);
      }

      .cls-2 {
        fill: #8bc542;
      }

      .cls-3 {
        fill: #fff;
      }
    </style>
    <clipPath id="clip-Artboard_1">
      <rect width="155" height="120"/>
    </clipPath>
  </defs>
  <g id="Artboard_1" data-name="Artboard – 1" class="cls-1">
    <rect class="cls-3" width="155" height="120"/>
    <path id="XMLID_36_" class="cls-2" d="M21.357,61.916a20.794,20.794,0,0,0,13.9-5.239L41.1,53.051a33.3,33.3,0,0,1,35.058,0L82,56.678a21.594,21.594,0,0,0,13.9,5.239,21.368,21.368,0,0,0,21.357-21.357C117.264,28.873,108.2,19,96.31,19a20.794,20.794,0,0,0-13.9,5.239l-5.843,3.627a33.3,33.3,0,0,1-35.058,0l-5.843-3.627A22.683,22.683,0,0,0,21.357,19a21.458,21.458,0,0,0,0,42.916ZM96.31,35.723a4.634,4.634,0,1,1-4.634,4.634A4.687,4.687,0,0,1,96.31,35.723Zm-74.952,0a4.634,4.634,0,1,1-4.634,4.634A4.828,4.828,0,0,1,21.357,35.723Z" transform="translate(0.048 19.189)"/>
    <path id="XMLID_31_" class="cls-2" d="M114.91,38a20.794,20.794,0,0,0-13.9,5.239l-5.843,3.627a33.3,33.3,0,0,1-35.058,0l-5.843-3.627A22.683,22.683,0,0,0,39.957,38a21.357,21.357,0,1,0,0,42.715,20.794,20.794,0,0,0,13.9-5.239L59.7,71.849a33.3,33.3,0,0,1,35.058,0l5.843,3.627a21.594,21.594,0,0,0,13.9,5.239,21.368,21.368,0,0,0,21.357-21.357A21.155,21.155,0,0,0,114.91,38ZM39.957,63.991a4.634,4.634,0,1,1,4.634-4.634A4.56,4.56,0,0,1,39.957,63.991Zm74.952,0a4.634,4.634,0,1,1,4.634-4.634A4.687,4.687,0,0,1,114.91,63.991Z" transform="translate(18.925 38.472)"/>
    <path id="XMLID_27_" class="cls-2" d="M114.91,0a20.794,20.794,0,0,0-13.9,5.239L95.164,8.865a33.3,33.3,0,0,1-35.058,0L54.263,5.239A22.683,22.683,0,0,0,39.957,0a21.357,21.357,0,1,0,0,42.715,20.794,20.794,0,0,0,13.9-5.239L59.7,33.849a33.3,33.3,0,0,1,35.058,0l5.843,3.627a21.594,21.594,0,0,0,13.9,5.239,21.368,21.368,0,0,0,21.357-21.357A21.155,21.155,0,0,0,114.91,0ZM39.957,25.991a4.634,4.634,0,1,1,4.634-4.634A4.56,4.56,0,0,1,39.957,25.991Zm74.952,0a4.634,4.634,0,1,1,4.634-4.634A4.687,4.687,0,0,1,114.91,25.991Z" transform="translate(18.925 -0.093)"/>
  </g>
</svg>
